<svg width="20" height="20" viewBox="0 0 20 20" fill="none" xmlns="http://www.w3.org/2000/svg">
    <path d="M0.699219 9.96875C0.816406 9.77735 0.980469 9.70313 1.21094 9.71094C1.59766 9.72657 1.98828 9.71485 2.35937 9.71485C2.52734 9.29688 2.66406 8.875 2.85547 8.48438C4 6.15235 5.83594 4.66407 8.38281 4.10938C10.1523 3.72266 11.8672 3.95313 13.5 4.75391C13.6328 4.81641 13.7422 4.91016 13.6953 5.0586C13.668 5.15235 13.5742 5.2461 13.4844 5.28907C13.4297 5.32032 13.3203 5.27735 13.25 5.24219C12.4961 4.87891 11.7109 4.63672 10.8789 4.54297C9.07422 4.33985 7.40234 4.72657 5.89453 5.7461C4.5 6.6875 3.54297 7.97266 3.01562 9.57422C3 9.61329 2.99219 9.65235 2.97656 9.71485C3.10547 9.71485 3.21875 9.70704 3.32812 9.71875C3.44141 9.73047 3.48437 9.6836 3.52344 9.58204C3.90625 8.48047 4.53125 7.53125 5.39453 6.75391C6.57031 5.69141 7.94922 5.10157 9.53516 4.98829C12.7109 4.76172 15.5 6.76172 16.4766 9.57813C16.5117 9.67969 16.5547 9.73047 16.668 9.71875C16.7812 9.70704 16.8945 9.71485 17.0586 9.71485C16.8945 9.32422 16.7617 8.95313 16.5898 8.60547C16.0898 7.57032 15.375 6.70313 14.4609 5.9961C14.3789 5.9336 14.2891 5.82813 14.2734 5.73047C14.2617 5.65625 14.3359 5.53907 14.4062 5.48047C14.5039 5.39454 14.6289 5.42579 14.7227 5.50782C15.0625 5.8086 15.418 6.09375 15.7344 6.41797C16.5039 7.20704 17.1992 8.30079 17.6094 9.71485C17.8867 9.71485 18.168 9.71485 18.4492 9.71485C18.6055 9.71485 18.7656 9.71094 18.9219 9.71875C19.1445 9.72657 19.2969 9.875 19.3008 10.0977C19.3047 10.5391 19.3008 10.9844 19.3008 11.4258C19.2969 11.6875 19.1563 11.8359 18.8789 11.8398C18.582 11.8477 18.2852 11.8438 17.9883 11.8438C17.9258 11.8438 17.8594 11.8438 17.7852 11.8438C17.7852 12.1797 17.7852 12.4961 17.7852 12.8164C18.1875 12.9023 18.2305 12.9609 18.2852 13.3906C18.375 14.125 18.4844 14.8516 18.5742 15.5859C18.6133 15.9141 18.4609 16.0703 18.1328 16.0742C17.3203 16.0742 16.5078 16.0742 15.6953 16.0742C15.3555 16.0703 15.207 15.8867 15.2578 15.5469C15.3594 14.8047 15.4609 14.0625 15.5586 13.3203C15.6055 12.957 15.6836 12.8672 16.0469 12.8281C16.0469 12.5117 16.0469 12.1953 16.0469 11.8555C15.9766 11.8516 15.9023 11.8438 15.8281 11.8438C13.5 11.8438 11.1758 11.8438 8.85156 11.8438C8.77344 11.8438 8.69141 11.8438 8.61719 11.8281C8.48047 11.8047 8.40625 11.7148 8.40234 11.5742C8.39453 11.4375 8.46094 11.3398 8.59375 11.3047C8.67578 11.2852 8.76172 11.2852 8.84766 11.2852C12.0625 11.2852 15.2773 11.2852 18.4922 11.2852C18.5703 11.2852 18.6484 11.2852 18.7422 11.2852C18.7422 10.9492 18.7422 10.6172 18.7422 10.2734C12.918 10.2734 7.09375 10.2734 1.25391 10.2734C1.25391 10.6055 1.25391 10.9336 1.25391 11.2852C1.32812 11.2852 1.39844 11.2852 1.46875 11.2852C3.36719 11.2852 5.26172 11.2852 7.15625 11.2852C7.20703 11.2852 7.25391 11.2852 7.30078 11.2852C7.54297 11.2891 7.67188 11.3867 7.67188 11.5664C7.67188 11.7461 7.54297 11.8438 7.30078 11.8438C6.25781 11.8438 5.21875 11.8438 4.17578 11.8438C4.10547 11.8438 4.03125 11.8438 3.94922 11.8438C3.94922 12.1797 3.94922 12.4961 3.94922 12.8125C4.36719 12.9102 4.38281 12.9258 4.44531 13.3711C4.55078 14.1211 4.65234 14.8672 4.75391 15.6172C4.78906 15.8711 4.62109 16.0703 4.35937 16.0703C3.51172 16.0742 2.66406 16.0742 1.81641 16.0703C1.55469 16.0703 1.39453 15.8984 1.41797 15.6406C1.4375 15.3945 1.47266 15.1484 1.50781 14.9063C1.53516 14.7188 1.67969 14.6055 1.83203 14.6367C1.99609 14.668 2.07812 14.8047 2.05078 14.9961C2.03125 15.1641 2.01172 15.332 1.98828 15.5117C2.72656 15.5117 3.44922 15.5117 4.18359 15.5117C4.08594 14.8047 3.99219 14.1016 3.89453 13.3906C3.35156 13.3906 2.82031 13.3906 2.27734 13.3906C2.26172 13.4961 2.24609 13.5977 2.22266 13.6953C2.1875 13.8477 2.05469 13.9453 1.92187 13.9141C1.76562 13.8789 1.67187 13.7773 1.6875 13.6172C1.69922 13.4492 1.72266 13.2813 1.76172 13.1133C1.80078 12.9375 1.92187 12.8672 2.21875 12.8203C2.21875 12.7813 2.22656 12.7422 2.22656 12.6992C2.22656 12.4219 2.22656 12.1445 2.22656 11.8438C1.875 11.8438 1.53906 11.8359 1.20312 11.8438C0.972656 11.8516 0.800781 11.7813 0.699219 11.5664C0.699219 11.0352 0.699219 10.5039 0.699219 9.96875ZM9.71094 5.4961C9.28906 5.57032 8.89844 5.64454 8.50391 5.69922C8.33984 5.72266 8.30859 5.80469 8.30859 5.95313C8.31641 7.14063 8.3125 8.32813 8.3125 9.51563C8.3125 9.57813 8.32031 9.64063 8.32031 9.70313C8.79687 9.70313 9.25391 9.70313 9.71094 9.70313C9.71094 8.3086 9.71094 6.92969 9.71094 5.4961ZM10.2891 9.70704C10.7617 9.70704 11.2148 9.70704 11.6719 9.70704C11.6758 9.67579 11.6836 9.65235 11.6836 9.63282C11.6875 8.37891 11.6836 7.125 11.6875 5.8711C11.6875 5.77344 11.6484 5.73047 11.5547 5.71485C11.3906 5.6836 11.2266 5.63672 11.0586 5.61329C10.8047 5.57422 10.5508 5.55079 10.2891 5.52344C10.2891 6.9375 10.2891 8.31641 10.2891 9.70704ZM7.74609 9.71094C7.74609 8.44922 7.74609 7.20313 7.74609 5.94141C7.28516 6.10547 6.87891 6.33594 6.48047 6.59375C6.37891 6.66016 6.33984 6.73438 6.33984 6.85938C6.34375 7.75 6.34375 8.63672 6.34375 9.52735C6.34375 9.58594 6.34375 9.64454 6.34375 9.71094C6.82031 9.71094 7.27344 9.71094 7.74609 9.71094ZM12.2539 9.70313C12.7305 9.70313 13.1875 9.70313 13.6445 9.70313C13.6484 9.66407 13.6562 9.64063 13.6562 9.61719C13.6562 8.67969 13.6562 7.7461 13.6523 6.8086C13.6523 6.74219 13.6016 6.65625 13.5469 6.6211C13.3086 6.46875 13.0664 6.32422 12.8164 6.1875C12.6406 6.09375 12.4492 6.01954 12.2539 5.92969C12.2539 7.20704 12.2539 8.45313 12.2539 9.70313ZM15.8164 15.5117C16.5508 15.5117 17.2734 15.5117 18.0117 15.5117C17.918 14.8008 17.8242 14.1016 17.7266 13.3945C17.1836 13.3945 16.6484 13.3945 16.1055 13.3945C16.0078 14.0977 15.9141 14.7969 15.8164 15.5117ZM5.77734 9.71094C5.77734 8.85547 5.77734 8.01954 5.77734 7.14844C4.98437 7.87891 4.42188 8.71485 4.05859 9.71094C4.64453 9.71094 5.20312 9.71094 5.77734 9.71094ZM15.9414 9.71094C15.5742 8.71094 15.0117 7.875 14.2227 7.14844C14.2227 8.02735 14.2227 8.86719 14.2227 9.71094C14.793 9.71094 15.3555 9.71094 15.9414 9.71094ZM3.37891 12.8281C3.37891 12.4961 3.37891 12.1758 3.37891 11.8555C3.17578 11.8555 2.98437 11.8555 2.78516 11.8555C2.78516 12.1836 2.78516 12.5 2.78516 12.8281C2.98437 12.8281 3.17578 12.8281 3.37891 12.8281ZM17.207 12.8281C17.207 12.4922 17.207 12.1758 17.207 11.8555C17.0039 11.8555 16.8125 11.8555 16.6211 11.8555C16.6211 12.1875 16.6211 12.5039 16.6211 12.8281C16.8203 12.8281 17.0117 12.8281 17.207 12.8281Z" fill="black"/>
</svg>
