<?xml version="1.0" encoding="utf-8"?>
<!-- Generator: Adobe Illustrator 25.2.3, SVG Export Plug-In . SVG Version: 6.00 Build 0)  -->
<svg version="1.1" id="Layer_1" xmlns="http://www.w3.org/2000/svg" xmlns:xlink="http://www.w3.org/1999/xlink" x="0px" y="0px"
	 viewBox="0 0 200 200" enable-background="new 0 0 200 200" xml:space="preserve">
<g>
	<path fill="#FFFFFF" d="M6.98,99.698c1.178-1.936,2.844-2.67,5.147-2.575c3.865,0.158,7.742,0.043,11.486,0.043
		c1.664-4.197,3.013-8.404,4.94-12.327c11.464-23.326,29.818-38.214,55.263-43.755c17.71-3.857,34.865-1.535,51.196,6.46
		c1.305,0.639,2.418,1.558,1.959,3.048c-0.286,0.927-1.231,1.853-2.122,2.317c-0.558,0.291-1.634-0.132-2.357-0.482
		c-7.515-3.636-15.378-6.053-23.689-6.989C90.728,43.4,74.039,47.255,58.959,57.456C45.008,66.893,35.426,79.72,30.142,95.732
		c-0.128,0.389-0.208,0.795-0.372,1.434c1.269,0,2.402-0.077,3.519,0.022c1.109,0.098,1.573-0.351,1.929-1.377
		c3.827-11.024,10.08-20.484,18.737-28.284c11.762-10.599,25.55-16.51,41.4-17.636c31.737-2.255,59.645,17.73,69.409,45.891
		c0.347,1,0.772,1.514,1.909,1.407c1.121-0.106,2.26-0.023,3.908-0.023c-1.64-3.941-2.969-7.625-4.67-11.128
		c-5.027-10.353-12.176-19.007-21.284-26.06c-0.848-0.657-1.723-1.693-1.896-2.674c-0.133-0.753,0.641-1.901,1.332-2.51
		c0.979-0.863,2.215-0.537,3.153,0.287c3.408,2.991,6.96,5.849,10.121,9.085c7.715,7.901,14.665,18.847,18.77,33
		c2.745,0,5.568,0,8.39,0c1.574,0,3.15-0.038,4.723,0.013c2.223,0.072,3.747,1.579,3.769,3.811c0.045,4.42,0.032,8.841,0.009,13.261
		c-0.014,2.635-1.452,4.094-4.199,4.161c-2.965,0.072-5.934,0.019-8.901,0.021c-0.652,0-1.305,0-2.063,0c0,3.357,0,6.539,0,9.717
		c4.046,0.867,4.474,1.468,5.011,5.77c0.913,7.317,1.987,14.614,2.898,21.931c0.408,3.28-1.122,4.87-4.43,4.874
		c-8.114,0.009-16.228,0.009-24.343,0c-3.399-0.004-4.886-1.856-4.409-5.244c1.045-7.422,2.052-14.849,3.014-22.282
		c0.47-3.631,1.279-4.538,4.911-4.926c0-3.15,0-6.32,0-9.712c-0.717-0.042-1.471-0.123-2.224-0.123
		c-23.253-0.007-46.505-0.004-69.758-0.011c-0.784,0-1.583,0.003-2.347-0.14c-1.355-0.254-2.095-1.131-2.151-2.526
		c-0.056-1.398,0.617-2.352,1.942-2.697c0.802-0.209,1.673-0.21,2.513-0.21c32.154-0.009,64.308-0.008,96.462-0.008
		c0.785,0,1.571,0,2.499,0c0-3.368,0-6.663,0-10.093c-58.23,0-116.501,0-174.887,0c0,3.302,0,6.594,0,10.093
		c0.758,0,1.464,0,2.171,0c18.953,0,37.907,0,56.86,0c0.484,0,0.969-0.004,1.453,0.001c2.402,0.027,3.694,1.011,3.694,2.808
		c0,1.793-1.27,2.769-3.71,2.772c-10.415,0.011-20.83,0.005-31.246,0.005c-0.717,0-1.435,0-2.276,0c0,3.35,0,6.528,0,9.702
		c4.174,0.975,4.342,1.129,4.97,5.579c1.056,7.481,2.082,14.966,3.1,22.452c0.345,2.535-1.358,4.537-3.957,4.547
		c-8.477,0.035-16.955,0.031-25.432,0.003c-2.612-0.009-4.22-1.726-3.992-4.292c0.22-2.467,0.55-4.927,0.918-7.378
		c0.28-1.866,1.699-2.973,3.239-2.672c1.614,0.315,2.44,1.672,2.199,3.577c-0.212,1.674-0.405,3.351-0.625,5.182
		c7.363,0,14.585,0,21.916,0c-0.959-7.08-1.913-14.123-2.874-21.219c-5.446,0-10.755,0-16.161,0
		c-0.183,1.046-0.309,2.053-0.541,3.035c-0.365,1.538-1.684,2.508-3.041,2.204c-1.553-0.348-2.469-1.364-2.342-2.982
		c0.132-1.683,0.373-3.372,0.743-5.019c0.402-1.79,1.612-2.496,4.568-2.931c0.03-0.391,0.087-0.803,0.089-1.215
		c0.008-2.774,0.004-5.547,0.004-8.574c-3.517,0-6.884-0.063-10.248,0.022c-2.275,0.057-4.017-0.645-5.036-2.77
		C6.98,110.356,6.98,105.027,6.98,99.698z M97.094,54.978c-4.211,0.718-8.12,1.458-12.054,2.022
		c-1.661,0.238-1.953,1.045-1.946,2.55c0.055,11.866,0.029,23.733,0.035,35.599c0,0.636,0.06,1.272,0.09,1.871
		c4.767,0,9.328,0,13.876,0C97.094,83.092,97.094,69.309,97.094,54.978z M102.882,97.072c4.743,0,9.262,0,13.832,0
		c0.057-0.308,0.136-0.535,0.136-0.762c0.01-12.532,0.004-25.065,0.032-37.597c0.002-0.995-0.408-1.389-1.332-1.559
		c-1.662-0.306-3.294-0.792-4.963-1.037c-2.535-0.372-5.091-0.602-7.707-0.9C102.882,69.386,102.882,83.169,102.882,97.072z
		 M77.451,97.103c0-12.612,0-25.055,0-37.67c-4.596,1.633-8.675,3.938-12.637,6.497c-1.033,0.668-1.418,1.416-1.41,2.654
		c0.053,8.899,0.028,17.799,0.028,26.699c0,0.586,0,1.173,0,1.82C68.207,97.103,72.734,97.103,77.451,97.103z M122.537,97.023
		c4.774,0,9.329,0,13.913,0c0.045-0.371,0.099-0.606,0.099-0.841c0.006-9.37,0.028-18.739-0.036-28.109
		c-0.004-0.632-0.512-1.498-1.05-1.846c-2.379-1.538-4.816-2.997-7.308-4.343c-1.763-0.952-3.648-1.678-5.617-2.568
		C122.537,72.089,122.537,84.523,122.537,97.023z M158.168,155.134c7.355,0,14.567,0,21.96,0c-0.96-7.142-1.898-14.122-2.848-21.19
		c-5.451,0-10.802,0-16.238,0C160.086,140.993,159.138,147.983,158.168,155.134z M57.773,97.09c0-8.529,0-16.885,0-25.618
		c-7.913,7.303-13.56,15.66-17.188,25.618C46.447,97.09,52.046,97.09,57.773,97.09z M159.414,97.093
		c-3.657-9.97-9.283-18.354-17.194-25.603c0,8.801,0,17.172,0,25.603C147.941,97.093,153.541,97.093,159.414,97.093z
		 M33.775,128.281c0-3.337,0-6.513,0-9.729c-2.015,0-3.916,0-5.921,0c0,3.286,0,6.454,0,9.729
		C29.846,128.281,31.747,128.281,33.775,128.281z M172.088,128.297c0-3.392,0-6.555,0-9.728c-2.053,0-3.948,0-5.879,0
		c0,3.307,0,6.477,0,9.728C168.214,128.297,170.115,128.297,172.088,128.297z"/>
</g>
</svg>
