<svg fill="black" version="1.1" id="Layer_1" xmlns="http://www.w3.org/2000/svg" xmlns:xlink="http://www.w3.org/1999/xlink" x="0px" y="0px"
	 viewBox="0 0 200 200" enable-background="new 0 0 200 200" xml:space="preserve">
<g>
	<path fill="black" d="M165.894,194.42c-40.602,0-81.205,0-121.807,0c-0.146-0.099-0.282-0.263-0.438-0.286
		c-7.728-1.142-15.442-8.511-15.221-19.222c0.26-12.617,0.061-25.244,0.061-37.866c0-36.297,0.028-72.595-0.025-108.892
		c-0.01-6.719,2.391-12.199,7.937-15.957c2.277-1.543,5.107-2.269,7.686-3.367c29.969,0,59.937,0,89.906,0
		c0.665,0.51,1.397,0.953,1.985,1.54c14.668,14.638,29.339,29.274,43.929,43.989c0.871,0.878,1.519,2.418,1.521,3.651
		c0.076,39.389,0.109,78.778,0.016,118.167c-0.019,7.958-4.102,13.555-11.31,16.838C168.786,193.628,167.31,193.959,165.894,194.42z
		 M128.973,16.423c-0.784,0-1.319,0-1.854,0c-26.52,0-53.04-0.006-79.56,0.004c-6.897,0.003-11.467,4.576-11.468,11.456
		c-0.005,49.168-0.005,98.336,0,147.504c0.001,6.858,4.592,11.434,11.492,11.436c38.239,0.008,76.479,0.007,114.718,0.001
		c7.027-0.001,11.585-4.542,11.586-11.527c0.005-37.329,0.002-74.658,0.002-111.987c0-0.631,0-1.262,0-1.957
		c-1.026,0-1.75,0-2.473,0c-7.974-0.002-15.949,0.067-23.922-0.025c-8.8-0.102-15.941-5.805-17.949-14.293
		c-0.412-1.741-0.537-3.582-0.549-5.379C128.943,33.328,128.973,25,128.973,16.423z M136.678,22.492
		c-0.011,0.232-0.046,0.629-0.046,1.026c-0.003,6.218-0.036,12.437,0.007,18.655c0.048,7.018,4.577,11.5,11.618,11.53
		c6.159,0.026,12.318,0.008,18.476,0c0.442-0.001,0.883-0.08,1.058-0.097C157.441,43.256,147.058,32.873,136.678,22.492z"/>
	<path fill="black" d="M104.897,91.877c-14.196,0-28.392,0.004-42.587-0.009c-0.837-0.001-1.719,0.006-2.502-0.239
		c-1.657-0.518-2.579-2.205-2.368-4.025c0.199-1.722,1.525-3.059,3.336-3.298c0.595-0.079,1.206-0.041,1.81-0.041
		c28.271-0.002,56.541-0.005,84.812,0.013c0.95,0.001,1.955,0.051,2.839,0.355c1.702,0.586,2.542,2.226,2.292,4.056
		c-0.243,1.772-1.57,3.014-3.414,3.155c-0.661,0.05-1.328,0.032-1.992,0.032C133.047,91.878,118.972,91.877,104.897,91.877z"/>
	<path fill="black" d="M104.986,101.632c14.438,0,28.876-0.004,43.314,0.003c2.617,0.001,4.206,1.374,4.277,3.638
		c0.065,2.071-1.382,3.724-3.454,3.929c-0.359,0.035-0.724,0.016-1.087,0.016c-28.694,0.001-57.389,0.001-86.083-0.001
		c-2.479,0-4.022-1.001-4.447-2.856c-0.587-2.559,1.095-4.702,3.804-4.717c5.98-0.035,11.961-0.012,17.942-0.012
		C87.83,101.631,96.408,101.632,104.986,101.632z"/>
	<path fill="black" d="M104.99,118.919c14.014,0,28.028-0.001,42.042,0.003c0.724,0,1.453-0.009,2.171,0.068c1.858,0.198,3.134,1.459,3.338,3.236
		c0.219,1.905-0.737,3.488-2.562,4.062c-0.675,0.213-1.42,0.284-2.133,0.285c-28.572,0.014-57.143,0.014-85.715,0.009
		c-2.827-0.001-4.497-1.247-4.706-3.454c-0.207-2.18,1.167-3.899,3.351-4.138c0.718-0.079,1.447-0.068,2.171-0.068
		C76.962,118.918,90.976,118.919,104.99,118.919z"/>
	<path fill="black" d="M79.52,143.877c-5.616,0-11.232,0.007-16.848-0.008c-0.781-0.002-1.577-0.031-2.338-0.184
		c-1.705-0.344-2.842-1.729-2.93-3.437c-0.093-1.803,0.948-3.322,2.677-3.829c0.515-0.151,1.066-0.253,1.6-0.254
		c11.896-0.014,23.792-0.015,35.688,0c0.594,0.001,1.21,0.103,1.777,0.281c1.662,0.518,2.623,1.949,2.575,3.716
		c-0.047,1.73-1.134,3.135-2.837,3.502c-0.816,0.175-1.676,0.203-2.517,0.205C90.752,143.885,85.136,143.877,79.52,143.877z"/>
	<path fill="black" d="M110.945,143.874c-2.812-0.034-4.487-1.462-4.496-3.832c-0.009-2.476,1.826-3.957,4.819-3.89
		c2.695,0.06,4.525,1.673,4.473,3.942C115.688,142.429,113.81,143.909,110.945,143.874z"/>
</g>
</svg>
