<?xml version="1.0" encoding="utf-8"?>
<!-- Generator: Adobe Illustrator 25.2.3, SVG Export Plug-In . SVG Version: 6.00 Build 0)  -->
<svg version="1.1" id="Layer_1" xmlns="http://www.w3.org/2000/svg" xmlns:xlink="http://www.w3.org/1999/xlink" x="0px" y="0px"
	 viewBox="0 0 200 200" enable-background="new 0 0 200 200" xml:space="preserve">
<g>
	<path fill="#000000" d="M185.743,67.143c-0.531,2.721-0.927,5.477-1.617,8.157c-2.477,9.618-7.587,17.646-15.037,24.173
		c-1.067,0.935-1.493,1.853-1.472,3.267c0.082,5.579,0.008,11.16,0.049,16.741c0.012,1.651-0.4,3.02-2.002,3.696
		c-1.643,0.692-3.009,0.102-4.217-1.115c-3.617-3.644-7.302-7.22-10.863-10.917c-0.868-0.901-1.641-1-2.763-0.793
		c-10.756,1.99-21.526,2.137-32.161-0.581c-10.092-2.579-18.404-8.186-24.898-16.285c-8.531-10.64-12.287-22.884-10.43-36.409
		c2.612-19.031,13.093-32.307,30.898-39.53c3.764-1.527,7.944-2.027,11.932-3.001c0.43-0.105,0.858-0.214,1.287-0.321
		c5.582,0,11.164,0,16.746,0c0.54,0.116,1.079,0.233,1.619,0.349c2.986,0.639,6.075,0.977,8.94,1.965
		c17.123,5.908,28.095,17.622,32.638,35.217c0.594,2.301,0.906,4.674,1.348,7.014C185.743,61.561,185.743,64.352,185.743,67.143z
		 M160.77,111.87c0.129-0.468,0.182-0.57,0.182-0.672c0.007-3.181,0.208-6.378-0.045-9.538c-0.241-3.004,0.933-4.897,3.164-6.827
		c12.183-10.536,16.887-23.98,14.128-39.739c-2.932-16.747-16.038-29.817-32.692-33.221c-6.779-1.385-13.657-1.212-20.505-0.67
		c-10.56,0.835-19.567,5.169-26.775,12.882c-9.325,9.978-13.077,21.859-10.97,35.397c1.905,12.237,8.253,21.733,18.536,28.555
		c6.405,4.249,13.498,6.505,21.217,6.7c7.135,0.18,14.294,0.6,21.262-1.443c2.266-0.664,3.954-0.173,5.537,1.539
		C155.996,107.195,158.333,109.419,160.77,111.87z"/>
	<path fill="#000000" d="M70.536,174.057c0-2.141-0.017-4.015,0.004-5.888c0.029-2.609,1.3-3.884,3.927-3.887
		c11.61-0.012,23.219,0.039,34.829-0.022c7.063-0.037,12.426-3.095,15.715-9.449c1.273-2.459,1.799-5.129,1.795-7.905
		c-0.011-7.033-0.004-14.065-0.003-21.098c0-0.502-0.021-1.007,0.017-1.506c0.143-1.904,1.576-3.253,3.393-3.218
		c1.741,0.033,3.231,1.361,3.239,3.185c0.038,8.483,0.396,16.991-0.11,25.445c-0.709,11.842-11.057,21.159-22.911,21.232
		c-10.381,0.064-20.763,0.016-31.145,0.017c-0.607,0-1.215,0-1.976,0c-0.031,0.625-0.078,1.16-0.08,1.695
		c-0.011,3.237,0.134,6.485-0.099,9.706c-0.074,1.027-0.949,2.215-1.8,2.91c-1.01,0.826-2.339,0.553-3.418-0.263
		c-0.487-0.368-0.942-0.785-1.375-1.216c-3.954-3.939-7.872-7.916-11.882-11.797c-0.592-0.573-1.609-0.98-2.437-0.991
		c-6.083-0.082-12.167-0.03-18.251-0.048c-13.425-0.038-23.682-10.316-23.698-23.775c-0.02-16.968-0.02-33.935,0-50.903
		c0.016-13.458,10.274-23.742,23.701-23.77c10.884-0.023,21.768-0.005,32.652-0.005c0.223,0,0.447-0.005,0.67,0.003
		c2.15,0.076,3.597,1.452,3.568,3.391c-0.028,1.872-1.443,3.204-3.503,3.286c-0.446,0.018-0.893,0.006-1.339,0.006
		c-10.493,0-20.987-0.012-31.48,0.004c-10.278,0.016-17.576,7.325-17.584,17.62c-0.014,16.577-0.011,33.154-0.001,49.731
		c0.006,10.481,7.287,17.717,17.816,17.727c6.642,0.006,13.284,0.028,19.926-0.018c1.644-0.011,2.732,0.608,3.853,1.844
		C65.001,168.805,67.709,171.273,70.536,174.057z"/>
	<path fill="#000000" d="M71.201,118.058c11.321,0,22.642-0.001,33.963,0.002c0.557,0,1.122-0.028,1.67,0.05
		c1.691,0.24,2.904,1.697,2.862,3.378c-0.04,1.613-1.238,2.978-2.868,3.206c-0.548,0.077-1.113,0.049-1.67,0.049
		c-22.753,0.002-45.507,0.002-68.26,0c-0.557,0-1.122,0.028-1.67-0.05c-1.692-0.24-2.904-1.696-2.862-3.378
		c0.04-1.614,1.238-2.978,2.868-3.206c0.548-0.077,1.113-0.049,1.67-0.049C48.336,118.057,59.769,118.058,71.201,118.058z"/>
	<path fill="#000000" d="M64.33,143.5c-9.152,0-18.304,0.001-27.455-0.002c-0.557,0-1.123,0.028-1.671-0.053
		c-1.623-0.238-2.813-1.621-2.838-3.235c-0.026-1.684,1.198-3.116,2.898-3.352c0.439-0.061,0.891-0.043,1.337-0.043
		c18.583-0.002,37.165-0.002,55.748,0c0.39,0,0.784-0.015,1.171,0.031c1.687,0.199,3.003,1.621,3.04,3.258
		c0.037,1.677-1.336,3.235-3.101,3.356c-1.444,0.099-2.9,0.04-4.351,0.04C80.848,143.501,72.589,143.5,64.33,143.5z"/>
	<path fill="#000000" d="M60.131,105.988c-7.749,0-15.498,0.001-23.247-0.002c-0.557,0-1.122,0.027-1.669-0.051
		c-1.625-0.234-2.817-1.608-2.849-3.221c-0.033-1.682,1.183-3.125,2.878-3.364c0.493-0.07,1.001-0.047,1.503-0.047
		c15.61-0.002,31.219-0.002,46.829,0c0.501,0,1.01-0.022,1.502,0.05c1.624,0.238,2.817,1.609,2.849,3.222
		c0.033,1.682-1.184,3.128-2.878,3.363c-0.548,0.076-1.113,0.048-1.67,0.048C75.63,105.989,67.88,105.988,60.131,105.988z"/>
	<path fill="#000000" d="M109.696,140.222c-0.035,1.785-1.568,3.278-3.353,3.265c-1.857-0.013-3.389-1.625-3.306-3.479
		c0.08-1.782,1.654-3.239,3.436-3.181C108.259,136.884,109.731,138.435,109.696,140.222z"/>
	<path fill="#000000" d="M130.424,69.165c-0.002-1.06-0.014-2.12,0.001-3.179c0.051-3.796,1.474-5.752,5.101-6.868
		c2.975-0.915,4.864-2.792,5.537-5.862c0.883-4.023-1.941-7.967-6.265-8.727c-3.836-0.674-7.848,2.286-8.358,6.161
		c-0.08,0.606-0.151,1.216-0.29,1.809c-0.456,1.94-1.883,2.904-3.802,2.605c-1.69-0.263-2.853-1.778-2.768-3.606
		c0.331-7.109,5.578-12.88,12.501-13.751c6.666-0.839,13.034,3.331,15.209,9.957c2.297,6.997-1.566,14.985-8.518,17.37
		c-1.309,0.449-1.731,1.023-1.645,2.355c0.119,1.833,0.059,3.68,0.021,5.52c-0.048,2.27-1.433,3.828-3.354,3.851
		c-1.935,0.023-3.298-1.492-3.36-3.787C130.397,71.732,130.426,70.448,130.424,69.165z"/>
	<path fill="#000000" d="M133.759,89.987c-1.836-0.003-3.268-1.408-3.298-3.236c-0.03-1.856,1.501-3.447,3.311-3.44
		c1.772,0.007,3.422,1.704,3.36,3.458C137.069,88.533,135.543,89.99,133.759,89.987z"/>
</g>
</svg>
