<?xml version="1.0" encoding="utf-8"?>
<!-- Generator: Adobe Illustrator 25.2.3, SVG Export Plug-In . SVG Version: 6.00 Build 0)  -->
<svg version="1.1" id="Layer_1" xmlns="http://www.w3.org/2000/svg" xmlns:xlink="http://www.w3.org/1999/xlink" x="0px" y="0px"
	 viewBox="0 0 200 200" enable-background="new 0 0 200 200" xml:space="preserve">
<g>
	<path fill="#000000" d="M14.38,170.435c1.342-1.904,3.47-1.288,5.477-1.533c0-2.556-0.011-4.998,0.003-7.439
		c0.015-2.782,0.805-3.57,3.61-3.589c2.439-0.017,4.878-0.004,7.514-0.004c0-2.475-0.002-4.748,0-7.021
		c0.003-3.468,0.578-4.038,4.099-4.084c0.388-0.005,0.775-0.035,1.283-0.059c0-18.168,0-36.309,0-54.71
		c-0.866,0-1.737,0.05-2.601-0.01c-1.89-0.132-2.725-0.963-2.762-2.859c-0.052-2.663-0.013-5.327-0.013-8.247
		c-2.547,0-4.921,0.005-7.295-0.001c-3.151-0.008-3.832-0.687-3.838-3.829c-0.005-2.955-0.014-5.909,0.003-8.864
		c0.016-2.607,0.851-3.596,3.37-3.398c2.77,0.217,4.949-0.668,7.21-2.245C52.78,46.963,75.19,31.487,97.579,15.979
		c2.204-1.527,2.648-1.53,4.914,0.039c22.569,15.63,45.151,31.241,67.678,46.93c1.884,1.312,3.709,1.945,5.994,1.836
		c3.334-0.159,3.968,0.594,3.971,3.98c0.002,2.955,0.024,5.909-0.008,8.863c-0.026,2.379-0.867,3.216-3.239,3.244
		c-2.549,0.03-5.098,0.007-7.879,0.007c0,2.455,0.001,4.722,0,6.988c-0.002,3.538-0.532,4.079-4.032,4.147
		c-0.434,0.008-0.866,0.06-1.376,0.098c0,18.214,0,36.356,0,54.657c0.804,0,1.516-0.017,2.226,0.003
		c2.257,0.063,3.141,0.917,3.172,3.159c0.035,2.554,0.008,5.11,0.008,7.939c1.911,0,3.669,0,5.427,0c0.78,0,1.561-0.014,2.341,0.004
		c2.479,0.059,3.326,0.884,3.354,3.344c0.029,2.501,0.006,5.003,0.006,7.804c1.059,0,1.981-0.048,2.897,0.011
		c1.687,0.109,2.549,0.981,2.564,2.654c0.031,3.567,0.03,7.135,0.002,10.703c-0.014,1.757-0.932,2.66-2.664,2.745
		c-0.278,0.014-0.557,0.003-0.836,0.003c-54.729,0-109.458-0.005-164.187,0.025c-1.529,0.001-2.728-0.331-3.532-1.68
		C14.38,179.133,14.38,174.784,14.38,170.435z M25.089,75.693c50.053,0,99.905,0,149.741,0c0-2.015,0-3.92,0-5.913
		c-0.872,0-1.592,0-2.312,0c-30.651,0-61.302,0-91.953-0.001c-0.669,0-1.342,0.028-2.005-0.038c-1.42-0.142-2.22-0.952-2.296-2.386
		c-0.073-1.382,0.87-2.446,2.281-2.591c0.552-0.057,1.114-0.02,1.671-0.02c27.084-0.001,54.169-0.001,81.253-0.001
		c0.632,0,1.263,0,2.329,0c-0.796-0.599-1.176-0.905-1.576-1.182c-20.327-14.081-40.662-28.149-60.964-42.267
		c-1.035-0.72-1.679-0.553-2.593,0.082C78.4,35.439,58.118,49.478,37.84,63.524c-0.428,0.297-0.83,0.632-1.598,1.22
		c1.038,0,1.631,0,2.224,0c9.641,0,19.282,0,28.924,0c2.695,0,3.874,0.8,3.827,2.594c-0.045,1.729-1.149,2.441-3.809,2.442
		c-13.431,0.002-26.862,0.001-40.292,0.001c-0.65,0-1.3,0-2.027,0C25.089,71.864,25.089,73.733,25.089,75.693z M83.622,80.997
		c-6.709,0-13.197,0-19.829,0c0,2.671,0.024,5.229-0.007,7.785c-0.027,2.24-0.91,3.125-3.144,3.22
		c-0.764,0.032-1.53,0.005-2.369,0.005c0,18.32,0,36.46,0,54.761c0.796,0,1.506-0.014,2.216,0.003
		c2.32,0.054,3.25,0.969,3.302,3.248c0.017,0.724,0.003,1.449,0.003,2.173c0,1.865,0,3.73,0,5.593c6.748,0,13.194,0,19.828,0
		c0-2.686-0.012-5.29,0.004-7.895c0.013-2.11,0.915-3.031,3.037-3.115c0.766-0.03,1.533-0.005,2.357-0.005
		c0-18.321,0-36.454,0-54.759c-0.72,0-1.323,0.009-1.925-0.002c-2.694-0.049-3.468-0.832-3.472-3.517
		C83.619,86.043,83.622,83.594,83.622,80.997z M116.372,157.736c6.723,0,13.209,0,19.829,0c0-2.575-0.011-5.018,0.003-7.461
		c0.015-2.612,0.897-3.475,3.545-3.506c0.645-0.008,1.29-0.001,1.956-0.001c0-18.362,0-36.502,0-54.689
		c-0.543-0.025-0.986-0.058-1.428-0.065c-3.449-0.05-4.075-0.684-4.076-4.142c-0.001-2.269,0-4.537,0-6.889
		c-6.694,0-13.181,0-19.829,0c0,2.761,0.018,5.424-0.006,8.086c-0.017,1.856-0.863,2.767-2.709,2.912
		c-0.871,0.068-1.752,0.012-2.685,0.012c0,18.365,0,36.499,0,54.776c0.725,0,1.329-0.007,1.934,0.001
		c2.634,0.035,3.461,0.876,3.465,3.533C116.376,152.744,116.372,155.186,116.372,157.736z M180.522,174.2
		c-53.78,0-107.405,0-161.04,0c0,1.99,0,3.859,0,5.804c53.714,0,107.337,0,161.04,0C180.522,178.038,180.522,176.168,180.522,174.2z
		 M25.081,168.885c50.06,0,99.911,0,149.798,0c0-1.984,0-3.85,0-5.734c-49.997,0-99.888,0-149.798,0
		C25.081,165.116,25.081,166.944,25.081,168.885z M53.086,146.691c0-18.298,0-36.389,0-54.559c-3.837,0-7.586,0-11.386,0
		c0,18.249,0,36.377,0,54.559C45.547,146.691,49.261,146.691,53.086,146.691z M146.923,92.128c0,18.225,0,36.359,0,54.509
		c3.853,0,7.603,0,11.409,0c0-18.218,0-36.305,0-54.509C154.489,92.128,150.74,92.128,146.923,92.128z M105.59,146.688
		c0-18.329,0-36.456,0-54.528c-3.841,0-7.537,0-11.188,0c0,18.277,0,36.404,0,54.528C98.206,146.688,101.867,146.688,105.59,146.688
		z M88.715,86.724c7.605,0,15.074,0,22.498,0c0-2.003,0-3.86,0-5.725c-7.568,0-14.999,0-22.498,0
		C88.715,82.939,88.715,84.76,88.715,86.724z M36.142,86.766c7.561,0,14.942,0,22.392,0c0-1.964,0-3.826,0-5.743
		c-7.52,0-14.936,0-22.392,0C36.142,82.99,36.142,84.814,36.142,86.766z M141.453,86.745c7.513,0,14.931,0,22.347,0
		c0-1.986,0-3.847,0-5.759c-7.496,0-14.875,0-22.347,0C141.453,82.953,141.453,84.816,141.453,86.745z M111.275,152.048
		c-7.611,0-15.046,0-22.502,0c0,1.981,0,3.838,0,5.695c7.561,0,14.995,0,22.502,0C111.275,155.802,111.275,153.987,111.275,152.048z
		 M58.53,152.046c-7.501,0-14.908,0-22.335,0c0,1.98,0,3.839,0,5.728c7.488,0,14.859,0,22.335,0
		C58.53,155.826,58.53,153.973,58.53,152.046z M141.457,157.749c7.504,0,14.909,0,22.344,0c0-1.98,0-3.838,0-5.675
		c-7.526,0-14.936,0-22.344,0C141.457,154.037,141.457,155.851,141.457,157.749z"/>
	<path fill="#000000" d="M100.011,42.615c4.521,0.006,8.018,3.515,8.015,8.042c-0.003,4.491-3.555,8.04-8.044,8.037
		c-4.476-0.004-8.02-3.571-8.015-8.066C91.972,46.112,95.489,42.609,100.011,42.615z M103.007,50.692
		c0.03-1.581-1.325-2.99-2.922-3.038c-1.595-0.048-3.016,1.263-3.098,2.858c-0.083,1.628,1.361,3.144,3.001,3.148
		C101.557,53.664,102.978,52.267,103.007,50.692z"/>
</g>
</svg>
