<svg width="18" height="19" viewBox="0 0 18 19" fill="none" xmlns="http://www.w3.org/2000/svg">
<path d="M9 0.5C6.9285 0.5 5.25 2.1785 5.25 4.25C5.25 6.3215 6.9285 8 9 8C11.0715 8 12.75 6.3215 12.75 4.25C12.75 2.1785 11.0715 0.5 9 0.5ZM9.1875 6.1055V6.5H8.8125V6.12575C8.424 6.119 8.02275 6.02675 7.6875 5.8535L7.8585 5.237C8.217 5.3765 8.694 5.52425 9.0675 5.44025C9.498 5.342 9.5865 4.89875 9.11025 4.68575C8.7615 4.523 7.6935 4.38425 7.6935 3.47C7.6935 2.9585 8.0835 2.501 8.8125 2.4005V2H9.1875V2.38175C9.45825 2.38925 9.7635 2.4365 10.1032 2.53925L9.9675 3.15725C9.6795 3.056 9.3615 2.96375 9.051 2.98325C8.493 3.0155 8.4435 3.49925 8.8335 3.70175C9.47475 4.00325 10.3125 4.22675 10.3125 5.03075C10.314 5.675 9.8085 6.01775 9.1875 6.1055ZM9 11C6.9285 11 5.25 12.6785 5.25 14.75C5.25 16.8215 6.9285 18.5 9 18.5C11.0715 18.5 12.75 16.8215 12.75 14.75C12.75 12.6785 11.0715 11 9 11ZM9 17.75C7.34625 17.75 6 16.4037 6 14.75C6 13.0963 7.34625 11.75 9 11.75C10.6545 11.75 12 13.0963 12 14.75C12 16.4037 10.6545 17.75 9 17.75ZM16.1828 7.54025C17.1075 9.30425 17.3438 12.641 14.244 14.8573C14.2583 14.1957 14.1593 13.5777 13.917 12.9282C15.5017 11.6202 15.4553 9.73025 14.8118 8.25275L13.029 9.17975L14.226 5.29325L18 6.596L16.1828 7.54025ZM1.81725 11.7485C0.8925 9.9845 0.72225 6.389 3.82125 4.17275C3.807 4.83425 3.90675 5.453 4.14825 6.10175C2.56275 7.4105 2.544 9.5585 3.1875 11.0367L4.97025 10.1097L3.77325 13.9963L0 12.6927L1.81725 11.7485ZM8.99925 17V16.433H8.81325V17H8.43675V16.433H7.50525L7.6005 15.875H7.803C7.96725 15.875 8.06325 15.7153 8.06325 15.5548V13.8883C8.06325 13.7323 7.97175 13.625 7.8075 13.625H7.5V13.0625H8.43675V12.5H8.81325V13.0625H8.99925V12.5H9.37575V13.0723C10.1842 13.1 10.5052 13.406 10.5975 13.7525C10.7048 14.1613 10.4355 14.504 10.2037 14.588C10.485 14.66 10.8758 14.8678 10.8758 15.3478C10.8758 16.001 10.371 16.4382 9.3765 16.4382V17H8.99925ZM8.81325 14.9368V15.875C9.5565 15.875 10.0665 15.8045 10.0665 15.4032C10.0665 14.972 9.516 14.9368 8.81325 14.9368ZM8.81325 14.5625C9.22725 14.5625 9.8595 14.5325 9.8595 14.093C9.8595 13.7188 9.46875 13.6243 8.81325 13.6243V14.5625Z" fill="white"/>
</svg>
