<?xml version="1.0" encoding="utf-8"?>
<!-- Generator: Adobe Illustrator 25.2.3, SVG Export Plug-In . SVG Version: 6.00 Build 0)  -->
<svg version="1.1" id="Layer_1" xmlns="http://www.w3.org/2000/svg" xmlns:xlink="http://www.w3.org/1999/xlink" x="0px" y="0px"
	 viewBox="0 0 200 200" enable-background="new 0 0 200 200" xml:space="preserve">
<g>
	<path fill="#FFFFFF" d="M12.933,129.948c-2.09,0.01-3.666-1.564-3.655-3.649c0.012-2.047,1.667-3.672,3.703-3.634
		c1.97,0.036,3.534,1.613,3.564,3.592C16.577,128.349,15.021,129.939,12.933,129.948z"/>
	<g>
		<path fill="#FFFFFF" d="M24.577,193.5c-1.631-0.592-3.341-1.029-4.88-1.804c-6.654-3.35-10.294-8.789-10.388-16.275
			c-0.135-10.711-0.04-21.425-0.032-32.137c0.002-2.55,1.376-4.14,3.559-4.182c2.273-0.044,3.709,1.563,3.711,4.211
			c0.008,10.287-0.002,20.573,0.005,30.86c0.005,7.474,4.567,12.027,12.058,12.028c42.767,0.003,85.534,0.004,128.3,0
			c7.47-0.001,12.013-4.569,12.022-12.067c0.007-6.269,0.001-12.539,0.001-18.808c0-0.594,0-1.188,0-1.986c-0.875,0-1.584,0-2.294,0
			c-17.435,0-34.873-0.217-52.303,0.071c-13.098,0.217-25.65-9.202-27.693-23.884c-1.91-13.725,8.654-27.971,22.42-29.859
			c1.797-0.246,3.625-0.366,5.438-0.369c17.374-0.027,34.748-0.016,52.122-0.016c0.712,0,1.423,0,2.31,0c0-3.268,0-6.356,0-9.443
			c0-3.956,0.023-7.913-0.005-11.869c-0.048-6.787-4.695-11.488-11.475-11.491c-43.131-0.019-86.263-0.018-129.394-0.001
			c-6.871,0.003-11.491,4.71-11.504,11.641c-0.021,10.469,0.002,20.938-0.011,31.407c-0.003,2.434-1.376,3.944-3.537,3.987
			c-2.05,0.041-3.702-1.368-3.708-3.428C9.266,98.642,9.071,87.193,9.375,75.759c0.236-8.889,8.479-16.477,17.496-16.576
			c1.989-0.022,3.327-0.649,4.709-2.042C47.64,40.954,63.762,24.827,79.884,8.701c0.809-0.809,1.765-1.471,2.652-2.201
			c0.729,0,1.458,0,2.187,0c0.881,0.726,1.823,1.391,2.632,2.19c3.313,3.273,6.586,6.588,9.983,9.997
			c1.98-2.011,3.854-3.985,5.806-5.878c2.207-2.141,4.485-4.209,6.731-6.309c0.729,0,1.458,0,2.187,0
			c0.888,0.726,1.847,1.382,2.654,2.189c17.41,17.417,34.801,34.852,52.204,52.275c0.727,0.728,1.522,1.392,2.316,2.049
			c4.464,3.695,6.931,8.383,6.965,14.233c0.039,6.634,0.009,13.268,0.01,19.903c0,0.652,0,1.305,0,2.133
			c3.443,0,6.706-0.004,9.97,0.001c3.378,0.006,4.61,1.233,4.61,4.602c0.002,14.973,0.003,29.945,0,44.918
			c-0.001,3.316-1.189,4.524-4.466,4.534c-3.32,0.01-6.641,0.002-10.113,0.002c0,0.87,0,1.528,0,2.185
			c-0.001,6.634,0.024,13.269-0.008,19.903c-0.037,7.655-4.872,14.433-12.079,17.001c-1.064,0.379-2.144,0.716-3.216,1.073
			C115.464,193.5,70.021,193.5,24.577,193.5z M183.429,106.588c-0.942,0-1.668,0-2.394,0c-21.799,0-43.598-0.008-65.397,0.014
			c-1.755,0.002-3.521,0.112-5.262,0.329c-9.784,1.214-17.683,11.415-16.437,21.169c1.379,10.793,9.453,17.925,20.328,17.929
			c22.406,0.007,44.812,0.002,67.218,0.002c0.641,0,1.282,0,1.943,0C183.429,132.783,183.429,119.787,183.429,106.588z
			 M67.803,58.981c28.821,0,57.608,0,86.053,0c-14.303-14.331-28.707-28.763-43.028-43.113
			C96.614,30.111,82.238,44.516,67.803,58.981z M83.752,15.849c-14.36,14.388-28.755,28.809-43.19,43.272
			c4.782,0,9.675-0.042,14.567,0.029c1.255,0.018,2.135-0.344,3.019-1.236c9.374-9.452,18.784-18.869,28.195-28.285
			c1.889-1.889,3.822-3.733,5.643-5.508C89.116,21.238,86.383,18.493,83.752,15.849z"/>
		<path fill="#FFFFFF" d="M113.479,137.263c-6.106-0.01-10.907-4.873-10.886-11.026c0.021-6.076,4.941-10.917,11.057-10.88
			c5.978,0.037,10.796,4.926,10.798,10.959C124.45,132.437,119.604,137.273,113.479,137.263z M113.601,122.692
			c-1.874-0.054-3.629,1.606-3.711,3.508c-0.08,1.865,1.562,3.644,3.458,3.749c1.943,0.107,3.776-1.622,3.801-3.587
			C117.173,124.476,115.502,122.747,113.601,122.692z"/>
	</g>
</g>
</svg>
