<?xml version="1.0" encoding="utf-8"?>
<!-- Generator: Adobe Illustrator 25.2.3, SVG Export Plug-In . SVG Version: 6.00 Build 0)  -->
<svg version="1.1" id="Layer_1" xmlns="http://www.w3.org/2000/svg" xmlns:xlink="http://www.w3.org/1999/xlink" x="0px" y="0px"
	 viewBox="0 0 200 200" enable-background="new 0 0 200 200" xml:space="preserve">
<g>
	<path fill="#FFFFFF" d="M189.011,17.943c0,48.794,0,97.587,0,146.381c-1.984,5.415-5.999,7.04-11.545,6.999
		c-22.766-0.169-45.534-0.071-68.301-0.071c-10.544,0-21.087,0.019-31.631-0.027c-1.179-0.005-1.692,0.298-2.048,1.485
		c-0.865,2.889-2.631,5.254-4.83,7.299c-3.861,3.59-8.463,5.84-13.494,7.181c-2.942,0.784-5.975,1.226-8.968,1.821
		c-3.129,0-6.259,0-9.388,0c-2.426-0.471-4.893-0.792-7.272-1.439c-9.395-2.552-17.587-6.625-20.544-16.989
		c0-47.055,0-94.11,0-141.165c1.216-2.46,2.074-5.198,3.72-7.326c4.184-5.41,10.207-7.991,16.645-9.649
		c2.446-0.63,4.965-0.977,7.451-1.453c47.75,0,95.501,0,143.251,0C185.526,12.156,187.839,14.479,189.011,17.943z M76.321,165.189
		c0.63,0.034,1.026,0.074,1.421,0.074c33.836,0.003,67.672,0.006,101.509-0.004c2.814-0.001,3.832-1.073,3.833-3.941
		c0.004-46.814,0.004-93.629,0-140.443c0-2.928-1.045-3.958-4.002-3.958c-36.791-0.004-73.582-0.003-110.373,0.002
		c-0.464,0-0.927,0.065-1.662,0.12c0.586,0.455,0.897,0.71,1.223,0.947c5.409,3.947,8.136,9.049,8.115,15.963
		c-0.126,42.932-0.063,85.865-0.063,128.797C76.321,163.495,76.321,164.243,76.321,165.189z M16.914,44.249c0,0.458,0,0.905,0,1.353
		c0,40.616,0.005,81.233-0.01,121.849c-0.001,2.882,0.895,5.424,2.989,7.334c1.734,1.582,3.637,3.098,5.71,4.168
		c7.547,3.897,15.652,4.758,23.974,3.685c5.801-0.748,11.3-2.452,15.999-6.136c3.143-2.464,4.771-5.561,4.764-9.711
		C70.274,126.58,70.3,86.369,70.3,46.158c0-0.613,0-1.225,0-1.861C52.42,55.655,34.795,55.652,16.914,44.249z M43.747,46.807
		c3.312-0.459,6.672-0.704,9.926-1.426c5.37-1.193,10.377-3.256,14.136-7.537c3.155-3.594,3.452-8.044,0.327-11.662
		c-1.733-2.007-3.94-3.846-6.301-5.027c-10.275-5.138-20.983-5.414-31.836-2.015c-3.959,1.24-7.574,3.175-10.397,6.323
		c-3.436,3.83-3.587,8.326-0.256,12.221c1.184,1.384,2.64,2.621,4.179,3.601C29.667,45.199,36.537,46.474,43.747,46.807z"/>
	<path fill="#FFFFFF" d="M42.623,40.591c-3.601-0.032-7.33-0.628-10.67-2.746c-5.272-3.341-5.429-9.145-0.02-12.239
		c7.145-4.087,14.643-4.068,21.794-0.038c5.476,3.086,5.309,9.012-0.055,12.35C50.378,39.968,46.695,40.565,42.623,40.591z
		 M51.899,31.633c-0.669-0.518-1.106-1.009-1.652-1.254c-4.965-2.223-9.961-2.248-14.892,0.065
		c-1.707,0.801-1.691,1.571-0.037,2.467c3.228,1.748,6.724,1.981,10.276,1.497C47.811,34.104,50.017,33.637,51.899,31.633z"/>
</g>
</svg>
